<svg width="71" height="71" viewBox="0 0 71 71" fill="none" xmlns="http://www.w3.org/2000/svg">
<g filter="url(#filter0_d_34717_8415)">
<circle cx="35.3996" cy="22.7492" r="16.7999" fill="#F53838"/>
</g>
<path d="M35.3996 5.94922C26.1211 5.94922 18.5996 13.4707 18.5996 22.7492C18.5996 32.0277 26.1211 39.5492 35.3996 39.5492C44.6781 39.5492 52.1996 32.0277 52.1996 22.7492C52.1996 13.4707 44.6781 5.94922 35.3996 5.94922ZM42.2334 19.7112C42.2404 19.8547 42.2421 19.9982 42.2421 20.1382C42.2421 24.5132 38.9154 29.555 32.8289 29.555C31.0304 29.558 29.2693 29.0414 27.7574 28.0675C28.0146 28.099 28.2789 28.1112 28.5466 28.1112C30.0971 28.1112 31.5234 27.5845 32.6556 26.6955C31.9656 26.6819 31.297 26.4534 30.7431 26.0419C30.1891 25.6303 29.7773 25.0562 29.5651 24.3995C30.0606 24.4937 30.5711 24.4739 31.0579 24.3417C30.3089 24.1903 29.6355 23.7845 29.1516 23.1931C28.6677 22.6018 28.4033 21.8613 28.4031 21.0972V21.057C28.8494 21.3037 29.3604 21.4542 29.9029 21.4717C29.2008 21.0043 28.7037 20.2864 28.5134 19.4647C28.3231 18.643 28.454 17.7797 28.8791 17.0512C29.7103 18.0732 30.7468 18.9093 31.9216 19.5053C33.0964 20.1013 34.3833 20.4439 35.6989 20.511C35.5316 19.801 35.6036 19.0557 35.9036 18.3909C36.2037 17.726 36.7149 17.179 37.358 16.8347C38.001 16.4904 38.7398 16.3682 39.4594 16.4871C40.1791 16.6061 40.8393 16.9594 41.3374 17.4922C42.0779 17.3457 42.7881 17.0741 43.4374 16.689C43.1905 17.4557 42.6738 18.1068 41.9831 18.5212C42.6391 18.4422 43.2796 18.2659 43.8836 17.998C43.44 18.6628 42.8811 19.243 42.2334 19.7112Z" fill="white"/>
<defs>
<filter id="filter0_d_34717_8415" x="0.599609" y="0.949219" width="69.5996" height="69.5996" filterUnits="userSpaceOnUse" color-interpolation-filters="sRGB">
<feFlood flood-opacity="0" result="BackgroundImageFix"/>
<feColorMatrix in="SourceAlpha" type="matrix" values="0 0 0 0 0 0 0 0 0 0 0 0 0 0 0 0 0 0 127 0" result="hardAlpha"/>
<feOffset dy="13"/>
<feGaussianBlur stdDeviation="9"/>
<feColorMatrix type="matrix" values="0 0 0 0 0.0658854 0 0 0 0 0.0730469 0 0 0 0 0.1375 0 0 0 0.08 0"/>
<feBlend mode="normal" in2="BackgroundImageFix" result="effect1_dropShadow_34717_8415"/>
<feBlend mode="normal" in="SourceGraphic" in2="effect1_dropShadow_34717_8415" result="shape"/>
</filter>
</defs>
</svg>
